<svg width="53" height="53" viewBox="0 0 53 53" fill="none" xmlns="http://www.w3.org/2000/svg">
<path fill-rule="evenodd" clip-rule="evenodd" d="M26.4999 24.5531C27.5749 24.5531 28.4466 25.4247 28.4466 26.5003C28.4466 27.5753 27.5749 28.447 26.4999 28.447C25.4243 28.447 24.5525 27.5753 24.5525 26.5003C24.5525 25.4247 25.4243 24.5531 26.4999 24.5531Z" fill="#CCCCCC"/>
<path d="M36.8545 26.5004C36.8545 26.228 37.0753 26.0075 37.3476 26.0075C37.6194 26.0075 37.8399 26.228 37.8399 26.5004C37.8399 29.6316 36.571 32.4671 34.5188 34.5193C32.4665 36.5715 29.6311 37.8405 26.4998 37.8405C23.368 37.8405 20.5329 36.5715 18.4807 34.5193C16.4285 32.4671 15.1589 29.6316 15.1589 26.5004C15.1589 23.3685 16.4285 20.5331 18.4807 18.4813C20.5329 16.429 23.368 15.1597 26.4998 15.1597C26.7716 15.1597 26.9921 15.3802 26.9921 15.6526C26.9921 15.9243 26.7716 16.1451 26.4998 16.1451C23.6402 16.1451 21.051 17.3039 19.1774 19.1781C17.3033 21.0516 16.1444 23.6409 16.1444 26.5004C16.1444 29.3598 17.3033 31.9486 19.1774 33.822C21.051 35.6963 23.6402 36.855 26.4998 36.855C29.3593 36.855 31.948 35.6963 33.8215 33.822C35.6955 31.9486 36.8545 29.3598 36.8545 26.5004Z" fill="#CCCCCC"/>
<path d="M26.4999 45.1996C26.7717 45.1996 26.9922 45.4201 26.9922 45.6925C26.9922 45.9644 26.7717 46.185 26.4999 46.185C21.0639 46.185 16.1424 43.9818 12.5801 40.4195C9.01777 36.8571 6.81458 31.936 6.81458 26.5002C6.81458 21.0642 9.01777 16.1428 12.5801 12.5804C16.1424 9.01807 21.0639 6.81488 26.4999 6.81488C31.9353 6.81488 36.8568 9.01807 40.4192 12.5804C43.9815 16.1428 46.1847 21.0642 46.1847 26.5002C46.1847 26.772 45.9639 26.9927 45.6922 26.9927C45.4198 26.9927 45.1993 26.772 45.1993 26.5002C45.1993 21.3362 43.1061 16.6615 39.7223 13.2771C36.3387 9.89351 31.6634 7.8003 26.4999 7.8003C21.3357 7.8003 16.661 9.89351 13.2768 13.2771C9.89321 16.6615 7.79999 21.3362 7.79999 26.5002C7.79999 31.6639 9.89321 36.3384 13.2768 39.7228C16.661 43.1064 21.3357 45.1996 26.4999 45.1996Z" fill="#CCCCCC"/>
<path d="M26.9923 20.0677C26.9923 20.34 26.7717 20.5606 26.4999 20.5606C26.2276 20.5606 26.0068 20.34 26.0068 20.0677V0.492909C26.0068 0.221159 26.2276 0 26.4999 0C26.7717 0 26.9923 0.221159 26.9923 0.492909V20.0677Z" fill="#CCCCCC"/>
<path d="M32.9319 26.9929C32.6595 26.9929 32.439 26.7721 32.439 26.5004C32.439 26.228 32.6595 26.0074 32.9319 26.0074H52.5067C52.779 26.0074 52.9996 26.228 52.9996 26.5004C52.9996 26.7721 52.779 26.9929 52.5067 26.9929H32.9319Z" fill="#CCCCCC"/>
<path d="M26.0068 32.9323C26.0068 32.66 26.2276 32.4394 26.4999 32.4394C26.7717 32.4394 26.9923 32.66 26.9923 32.9323V52.5071C26.9923 52.7794 26.7717 53 26.4999 53C26.2276 53 26.0068 52.7794 26.0068 52.5071V32.9323Z" fill="#CCCCCC"/>
<path d="M20.1369 26.0074C20.4092 26.0074 20.6298 26.228 20.6298 26.5004C20.6298 26.7721 20.4092 26.9929 20.1369 26.9929H0.492509C0.220559 26.9929 0 26.7721 0 26.5004C0 26.228 0.220559 26.0074 0.492509 26.0074H20.1369Z" fill="#CCCCCC"/>
<path d="M20.5602 26.5003C20.5602 26.772 20.3397 26.9928 20.0673 26.9928C19.7954 26.9928 19.5748 26.772 19.5748 26.5003C19.5748 24.5878 20.3499 22.8565 21.6031 21.6034C22.8562 20.3502 24.5873 19.5751 26.4999 19.5751C28.4118 19.5751 30.1431 20.3502 31.3962 21.6034C32.6494 22.8565 33.4245 24.5878 33.4245 26.5003C33.4245 28.4121 32.6494 30.1434 31.3962 31.3965C30.1431 32.6497 28.4118 33.4248 26.4999 33.4248C26.2276 33.4248 26.0068 33.2042 26.0068 32.9323C26.0068 32.6599 26.2276 32.4394 26.4999 32.4394C28.14 32.4394 29.6246 31.7743 30.6996 30.6999C31.774 29.6249 32.439 28.1403 32.439 26.5003C32.439 24.8602 31.774 23.375 30.6996 22.3C29.6246 21.2256 28.14 20.5606 26.4999 20.5606C24.8597 20.5606 23.3747 21.2256 22.2997 22.3C21.2251 23.375 20.5602 24.8602 20.5602 26.5003Z" fill="#CCCCCC"/>
<path d="M22.7306 12.5044C22.4681 12.5746 22.1983 12.4188 22.1282 12.1563C22.058 11.8937 22.2137 11.624 22.4763 11.5538C26.6033 10.448 30.7882 11.1196 34.2183 13.1003C37.6477 15.0803 40.3218 18.3687 41.4276 22.4957C42.5332 26.6222 41.8611 30.8076 39.8805 34.2374C37.901 37.6665 34.6124 40.3408 30.4856 41.447C29.8313 41.622 29.1701 41.7532 28.505 41.8416C27.8355 41.9307 27.1658 41.9753 26.4999 41.9763C26.2286 41.9763 26.009 41.7566 26.009 41.4854C26.009 41.2145 26.2286 40.9945 26.4999 40.9945C27.1198 40.9935 27.7469 40.9519 28.3776 40.8675C28.9893 40.7862 29.6082 40.6628 30.2311 40.4958C34.0965 39.4602 37.1756 36.9561 39.0298 33.7443C40.8839 30.5336 41.5126 26.615 40.4764 22.7497C39.4408 18.8848 36.9366 15.8052 33.7254 13.9509C30.5148 12.0975 26.5961 11.4688 22.7306 12.5044Z" fill="#CCCCCC"/>
</svg>
