<svg width="231" height="233" viewBox="0 0 231 233" fill="none" xmlns="http://www.w3.org/2000/svg">
<path d="M84.275 232.625C67.025 232.625 54.15 228.458 45.65 220.125C37.15 211.875 32.9 198.75 32.9 180.75V149C32.9 140.417 30.9833 133.958 27.15 129.625C23.3167 125.292 16.9417 123.125 8.02499 123.125H0.149994V99.5H8.02499C12.525 99.5 16.3583 99.0417 19.525 98.125C22.6917 97.125 25.275 95.625 27.275 93.625C29.275 91.625 30.6917 89.0833 31.525 86C32.4417 82.8333 32.9 79.0833 32.9 74.75V52.75C32.9 44.1667 33.8583 36.625 35.775 30.125C37.775 23.625 40.8583 18.2083 45.025 13.875C49.1917 9.54167 54.4833 6.29167 60.9 4.125C67.4 1.875 75.1917 0.75 84.275 0.75H94.775V24.25H86.9C82.9 24.25 79.275 24.75 76.025 25.75C72.8583 26.6667 70.1083 28.2083 67.775 30.375C65.4417 32.5417 63.65 35.4167 62.4 39C61.15 42.5 60.525 46.875 60.525 52.125V74C60.525 80.25 59.9833 85.5833 58.9 90C57.9 94.4167 56.3167 98.125 54.15 101.125C51.9833 104.042 49.2333 106.333 45.9 108C42.5667 109.583 38.65 110.708 34.15 111.375C43.0667 112.375 49.6917 115.875 54.025 121.875C58.3583 127.792 60.525 136.917 60.525 149.25V181C60.525 186.417 61.15 190.917 62.4 194.5C63.65 198.083 65.4417 200.958 67.775 203.125C70.1083 205.292 72.8583 206.833 76.025 207.75C79.275 208.667 82.9 209.125 86.9 209.125H94.775V232.625H84.275Z" fill="#A6A6A6"/>
<path d="M146.725 0.75C164.058 0.75 176.975 4.91667 185.475 13.25C193.975 21.5 198.225 34.6667 198.225 52.75V73.75C198.225 82.3333 200.1 88.7917 203.85 93.125C207.683 97.375 214.058 99.5 222.975 99.5H230.975V123.125H222.975C218.475 123.125 214.642 123.625 211.475 124.625C208.308 125.542 205.725 127 203.725 129C201.808 131 200.392 133.583 199.475 136.75C198.642 139.833 198.225 143.542 198.225 147.875V180.75C198.225 189.333 197.225 196.833 195.225 203.25C193.308 209.75 190.267 215.167 186.1 219.5C181.933 223.833 176.6 227.083 170.1 229.25C163.6 231.5 155.808 232.625 146.725 232.625H136.225V209.125H144.225C148.225 209.125 151.808 208.667 154.975 207.75C158.225 206.833 161.017 205.25 163.35 203C165.683 200.833 167.475 197.958 168.725 194.375C169.975 190.875 170.6 186.5 170.6 181.25V148.75C170.6 142.5 171.1 137.167 172.1 132.75C173.183 128.25 174.767 124.542 176.85 121.625C179.017 118.625 181.767 116.333 185.1 114.75C188.433 113.167 192.35 112.042 196.85 111.375C187.933 110.292 181.308 106.792 176.975 100.875C172.725 94.875 170.6 85.7083 170.6 73.375V52.5C170.6 47.0833 169.975 42.5833 168.725 39C167.475 35.3333 165.683 32.4167 163.35 30.25C161.017 28.0833 158.225 26.5417 154.975 25.625C151.808 24.7083 148.225 24.25 144.225 24.25H136.225V0.75H146.725Z" fill="white"/>
</svg>
