<svg width="12" height="12" viewBox="0 0 12 12" fill="none" xmlns="http://www.w3.org/2000/svg">
<path d="M4.79089 0.117212C4.98364 0.0786604 5.29206 0.0330997 5.4743 0.0155763C5.65654 0.00155763 5.9965 -0.00545171 6.2278 0.00506231C6.45911 0.0155763 6.8271 0.0506231 7.04089 0.0891745C7.25818 0.124221 7.61565 0.211838 7.82944 0.281931C8.04673 0.352025 8.3972 0.492212 8.61098 0.593847C8.82477 0.695483 9.14019 0.874221 9.31192 0.989875C9.48365 1.10553 9.73598 1.29478 10.118 1.62072L11.7126 0.0330997L11.9579 0.278427L10.3633 1.86604L10.5841 2.12188C10.7068 2.26558 10.903 2.52492 11.0152 2.69665C11.1308 2.86838 11.3026 3.16978 11.3972 3.36254C11.4918 3.5553 11.632 3.90226 11.7091 4.13357C11.7862 4.36488 11.8843 4.74338 11.9264 4.97469C11.9825 5.29712 12 5.53894 12 6.00857C12 6.47819 11.9825 6.72002 11.9264 7.04245C11.8843 7.27375 11.7862 7.65927 11.7056 7.90109C11.625 8.14291 11.4778 8.49689 11.3797 8.68964C11.2815 8.8824 11.1133 9.17329 11.0012 9.33801C10.8925 9.50273 10.7068 9.74455 10.3843 10.1266L11.9755 11.7212L11.7301 11.9665L10.139 10.3719L9.88318 10.5927C9.74299 10.7153 9.48365 10.9116 9.31192 11.0238C9.14019 11.1394 8.83879 11.3111 8.64603 11.4058C8.45327 11.5004 8.10631 11.6406 7.875 11.7177C7.64369 11.7948 7.26519 11.8929 7.03388 11.935C6.71145 11.991 6.46963 12.0086 6 12.0086C5.53037 12.0086 5.28855 11.991 4.96612 11.935C4.73481 11.8929 4.3493 11.7948 4.10748 11.7142C3.86565 11.6336 3.51168 11.4864 3.31893 11.3882C3.12617 11.2901 2.84229 11.1254 2.68808 11.0238C2.53388 10.9186 2.28505 10.7294 1.85748 10.3719L0.26986 11.9665L0.0245327 11.7212L1.61565 10.1266L1.40537 9.88123C1.28621 9.74455 1.09696 9.49221 0.984813 9.32048C0.869159 9.14876 0.69743 8.84735 0.602804 8.6546C0.508178 8.46184 0.367991 8.11488 0.290888 7.88357C0.213785 7.65226 0.115654 7.27375 0.0735981 7.04245C0.0175234 6.72002 0 6.47819 0 6.00857C0 5.53894 0.0175234 5.29712 0.0735981 4.97469C0.115654 4.74338 0.213785 4.36488 0.290888 4.13357C0.367991 3.90226 0.508178 3.5553 0.602804 3.36254C0.693925 3.16978 0.865654 2.86838 0.981308 2.69665C1.09696 2.52492 1.28972 2.26207 1.62617 1.85553L0.0420561 0.278427L0.287383 0.0330997L1.88201 1.62072L2.12734 1.41044C2.26051 1.29478 2.51636 1.10553 2.68808 0.989875C2.85981 0.874221 3.17523 0.695483 3.38902 0.593847C3.6028 0.492212 3.92523 0.359034 4.10748 0.299455C4.28972 0.236371 4.59813 0.155763 4.79089 0.117212Z" fill="white"/>
<path d="M4.94846 0.436135C5.0536 0.415107 5.27439 0.387069 5.43911 0.369546C5.60383 0.352023 5.83864 0.338004 5.96481 0.338004C6.09098 0.334499 6.34332 0.348518 6.52556 0.366041C6.7078 0.387069 6.98467 0.425621 7.13888 0.457163C7.29308 0.488705 7.58397 0.569312 7.78724 0.635901C7.99051 0.70249 8.31294 0.839172 8.5057 0.933798C8.69846 1.03193 8.9578 1.17562 9.08397 1.25623C9.21014 1.34034 9.43444 1.50156 9.58164 1.62071C9.73234 1.73987 9.855 1.84852 9.855 1.86604C9.855 1.88006 9.39589 2.34969 7.82229 3.92328L8.06762 4.16861L9.07696 3.16277C9.6307 2.60553 10.1038 2.15342 10.1284 2.15342C10.1529 2.15342 10.2791 2.29011 10.4157 2.46184C10.5489 2.63006 10.7522 2.92445 10.8679 3.11721C10.9835 3.30997 11.1342 3.60085 11.2043 3.76557C11.2744 3.93029 11.376 4.21417 11.4321 4.39642C11.4847 4.57866 11.5548 4.88006 11.5828 5.0623C11.6143 5.24455 11.6494 5.55296 11.6634 5.74571C11.6739 5.94198 11.6669 6.27142 11.6459 6.49922C11.6214 6.72001 11.5723 7.04595 11.5337 7.21768C11.4952 7.38941 11.4181 7.67679 11.3585 7.84852C11.2954 8.02025 11.1693 8.32165 11.0711 8.51441C10.9765 8.70716 10.8188 8.98403 10.7207 9.12772C10.626 9.27142 10.4578 9.49571 10.3492 9.62889C10.2405 9.75856 10.1459 9.86371 10.1354 9.86371C10.1249 9.86371 9.65523 9.40109 8.06762 7.81347L7.82229 8.0588L8.84215 9.07515C9.4029 9.6324 9.8585 10.109 9.85149 10.1336C9.84449 10.1581 9.74285 10.2562 9.6272 10.3544C9.51154 10.4525 9.28374 10.6242 9.11902 10.7329C8.9543 10.838 8.64939 11.0097 8.43561 11.1114C8.22182 11.213 7.92392 11.3392 7.76972 11.3882C7.61551 11.4408 7.35617 11.5109 7.19145 11.5495C7.02673 11.5845 6.68678 11.6336 6.43794 11.6546C6.09098 11.6861 5.8772 11.6861 5.54425 11.6546C5.30243 11.6301 4.96248 11.581 4.79075 11.5424C4.61902 11.5039 4.33164 11.4268 4.15991 11.3672C3.98818 11.3041 3.68678 11.178 3.49402 11.0798C3.30126 10.9852 3.02439 10.8275 2.8807 10.7294C2.73701 10.6347 2.51271 10.4665 2.37953 10.3579C2.24986 10.2492 2.14472 10.1476 2.14472 10.1266C2.14472 10.1055 2.60383 9.6324 4.17743 8.0588L3.9321 7.81347L1.86084 9.88123L1.7557 9.75856C1.69612 9.69198 1.55944 9.51674 1.45079 9.37305C1.33864 9.22936 1.16692 8.96651 1.06878 8.79478C0.970654 8.62305 0.833972 8.34618 0.767383 8.18146C0.69729 8.01674 0.602663 7.73987 0.553598 7.56814C0.504533 7.39642 0.441448 7.11955 0.413411 6.95483C0.385374 6.79011 0.353832 6.49221 0.339813 6.28894C0.325794 6.07515 0.332804 5.75272 0.353832 5.51791C0.378364 5.29712 0.42743 4.97118 0.465981 4.79945C0.504533 4.62772 0.581635 4.34034 0.641215 4.16861C0.700794 3.99688 0.830467 3.69548 0.925093 3.50272C1.02322 3.30997 1.16692 3.05062 1.24752 2.92445C1.33164 2.79828 1.49285 2.57399 1.61201 2.42679C1.73117 2.27609 1.85033 2.15342 1.87136 2.15342C1.89589 2.15342 2.36902 2.60553 3.9321 4.16861L4.17743 3.92328L2.1272 1.86955L2.24986 1.7609C2.31645 1.70132 2.49168 1.56464 2.63537 1.45599C2.77907 1.34735 3.04192 1.17562 3.21364 1.07749C3.38537 0.979359 3.66224 0.842677 3.82696 0.776088C3.99168 0.705995 4.26855 0.611369 4.44028 0.562303C4.61201 0.516742 4.84332 0.457163 4.94846 0.436135Z" fill="black"/>
</svg>
