<svg width="344" height="86" viewBox="0 0 344 86" fill="none" xmlns="http://www.w3.org/2000/svg">
<g clip-path="url(#clip0_33_516)">
<path d="M344 0H0V86H344V0Z" fill="#0B0B0B"/>
<path d="M91.7706 41.1596C91.7706 39.5637 90.4788 38.27 88.8853 38.27C87.2918 38.27 86 39.5637 86 41.1596V44.8404C86 46.4363 87.2918 47.73 88.8853 47.73C90.4788 47.73 91.7706 46.4363 91.7706 44.8404V41.1596Z" fill="white"/>
<path d="M102.452 35.1396C102.452 33.5437 101.16 32.25 99.5665 32.25C97.973 32.25 96.6812 33.5437 96.6812 35.1396V50.8604C96.6812 52.4563 97.973 53.75 99.5665 53.75C101.16 53.75 102.452 52.4563 102.452 50.8604V35.1396Z" fill="white"/>
<path d="M113.133 38.1499C113.133 36.554 111.841 35.2603 110.248 35.2603C108.654 35.2603 107.362 36.554 107.362 38.1499V47.8507C107.362 49.4465 108.654 50.7403 110.248 50.7403C111.841 50.7403 113.133 49.4465 113.133 47.8507V38.1499Z" fill="white"/>
<path d="M123.823 26.1098C123.823 24.5139 122.531 23.2202 120.937 23.2202C119.344 23.2202 118.052 24.5139 118.052 26.1098V59.8906C118.052 61.4865 119.344 62.7802 120.937 62.7802C122.531 62.7802 123.823 61.4865 123.823 59.8906V26.1098Z" fill="white"/>
<path d="M134.504 20.0898C134.504 18.4939 133.212 17.2002 131.619 17.2002C130.025 17.2002 128.733 18.4939 128.733 20.0898V65.9106C128.733 67.5065 130.025 68.8002 131.619 68.8002C133.212 68.8002 134.504 67.5065 134.504 65.9106V20.0898Z" fill="white"/>
<path d="M145.185 23.0996C145.185 21.5037 143.893 20.21 142.3 20.21C140.706 20.21 139.415 21.5037 139.415 23.0996V62.9004C139.415 64.4962 140.706 65.79 142.3 65.79C143.893 65.79 145.185 64.4962 145.185 62.9004V23.0996Z" fill="white"/>
<path d="M155.866 38.1499C155.866 36.554 154.575 35.2603 152.981 35.2603C151.388 35.2603 150.096 36.554 150.096 38.1499V47.8507C150.096 49.4465 151.388 50.7403 152.981 50.7403C154.575 50.7403 155.866 49.4465 155.866 47.8507V38.1499Z" fill="white"/>
<path d="M166.556 35.1396C166.556 33.5437 165.264 32.25 163.671 32.25C162.077 32.25 160.786 33.5437 160.786 35.1396V50.8604C160.786 52.4563 162.077 53.75 163.671 53.75C165.264 53.75 166.556 52.4563 166.556 50.8604V35.1396Z" fill="white"/>
<path d="M177.237 26.1098C177.237 24.5139 175.946 23.2202 174.352 23.2202C172.759 23.2202 171.467 24.5139 171.467 26.1098V59.8906C171.467 61.4865 172.759 62.7802 174.352 62.7802C175.946 62.7802 177.237 61.4865 177.237 59.8906V26.1098Z" fill="white"/>
<path d="M187.919 26.1098C187.919 24.5139 186.627 23.2202 185.033 23.2202C183.44 23.2202 182.148 24.5139 182.148 26.1098V59.8906C182.148 61.4865 183.44 62.7802 185.033 62.7802C186.627 62.7802 187.919 61.4865 187.919 59.8906V26.1098Z" fill="white"/>
<path d="M198.6 29.1196C198.6 27.5237 197.308 26.23 195.715 26.23C194.121 26.23 192.829 27.5237 192.829 29.1196V56.8804C192.829 58.4763 194.121 59.77 195.715 59.77C197.308 59.77 198.6 58.4763 198.6 56.8804V29.1196Z" fill="white"/>
<path d="M209.281 20.0898C209.281 18.4939 207.989 17.2002 206.396 17.2002C204.802 17.2002 203.51 18.4939 203.51 20.0898V65.9106C203.51 67.5065 204.802 68.8002 206.396 68.8002C207.989 68.8002 209.281 67.5065 209.281 65.9106V20.0898Z" fill="white"/>
<path d="M219.971 23.0996C219.971 21.5037 218.679 20.21 217.085 20.21C215.492 20.21 214.2 21.5037 214.2 23.0996V62.9004C214.2 64.4962 215.492 65.79 217.085 65.79C218.679 65.79 219.971 64.4962 219.971 62.9004V23.0996Z" fill="white"/>
<path d="M230.652 26.1098C230.652 24.5139 229.36 23.2202 227.767 23.2202C226.173 23.2202 224.881 24.5139 224.881 26.1098V59.8906C224.881 61.4865 226.173 62.7802 227.767 62.7802C229.36 62.7802 230.652 61.4865 230.652 59.8906V26.1098Z" fill="white"/>
<path d="M241.333 38.1499C241.333 36.554 240.041 35.2603 238.448 35.2603C236.854 35.2603 235.563 36.554 235.563 38.1499V47.8507C235.563 49.4465 236.854 50.7403 238.448 50.7403C240.041 50.7403 241.333 49.4465 241.333 47.8507V38.1499Z" fill="white"/>
<path d="M252.014 35.1396C252.014 33.5437 250.723 32.25 249.129 32.25C247.536 32.25 246.244 33.5437 246.244 35.1396V50.8604C246.244 52.4563 247.536 53.75 249.129 53.75C250.723 53.75 252.014 52.4563 252.014 50.8604V35.1396Z" fill="white"/>
<path d="M262.704 20.0898C262.704 18.4939 261.412 17.2002 259.819 17.2002C258.225 17.2002 256.934 18.4939 256.934 20.0898V65.9106C256.934 67.5065 258.225 68.8002 259.819 68.8002C261.412 68.8002 262.704 67.5065 262.704 65.9106V20.0898Z" fill="white"/>
<path d="M273.385 35.1396C273.385 33.5437 272.094 32.25 270.5 32.25C268.907 32.25 267.615 33.5437 267.615 35.1396V50.8604C267.615 52.4563 268.907 53.75 270.5 53.75C272.094 53.75 273.385 52.4563 273.385 50.8604V35.1396Z" fill="white"/>
<path d="M284.067 23.0996C284.067 21.5037 282.775 20.21 281.181 20.21C279.588 20.21 278.296 21.5037 278.296 23.0996V62.9004C278.296 64.4962 279.588 65.79 281.181 65.79C282.775 65.79 284.067 64.4962 284.067 62.9004V23.0996Z" fill="white"/>
<path d="M294.748 38.1499C294.748 36.554 293.456 35.2603 291.862 35.2603C290.269 35.2603 288.977 36.554 288.977 38.1499V47.8507C288.977 49.4465 290.269 50.7403 291.862 50.7403C293.456 50.7403 294.748 49.4465 294.748 47.8507V38.1499Z" fill="white"/>
<path d="M305.429 38.1499C305.429 36.554 304.137 35.2603 302.544 35.2603C300.95 35.2603 299.658 36.554 299.658 38.1499V47.8507C299.658 49.4465 300.95 50.7403 302.544 50.7403C304.137 50.7403 305.429 49.4465 305.429 47.8507V38.1499Z" fill="white"/>
<path d="M316.119 29.1196C316.119 27.5237 314.827 26.23 313.233 26.23C311.64 26.23 310.348 27.5237 310.348 29.1196V56.8804C310.348 58.4763 311.64 59.77 313.233 59.77C314.827 59.77 316.119 58.4763 316.119 56.8804V29.1196Z" fill="white"/>
<path d="M326.8 41.1596C326.8 39.5637 325.508 38.27 323.915 38.27C322.321 38.27 321.029 39.5637 321.029 41.1596V44.8404C321.029 46.4363 322.321 47.73 323.915 47.73C325.508 47.73 326.8 46.4363 326.8 44.8404V41.1596Z" fill="white"/>
<path d="M43 17.2002C48.1028 17.2002 53.0909 18.7133 57.3337 21.5483C61.5765 24.3832 64.8834 28.4126 66.8361 33.127C68.7888 37.8413 69.2998 43.0288 68.3043 48.0335C67.3088 53.0382 64.8516 57.6354 61.2434 61.2436C57.6352 64.8517 53.038 67.309 48.0333 68.3045C43.0286 69.3 37.8411 68.789 33.1268 66.8363C28.4124 64.8835 24.383 61.5767 21.5481 57.3339C18.7131 53.0911 17.2 48.103 17.2 43.0002C17.2 36.1576 19.9182 29.5953 24.7566 24.7568C29.5951 19.9184 36.1574 17.2002 43 17.2002ZM54.8078 54.3522C55.0104 54.0154 55.0813 53.6156 55.0066 53.2298C54.932 52.8439 54.7172 52.4993 54.4036 52.2624C54.2712 52.1657 54.1334 52.0767 53.9908 51.9958C52.3817 51.0373 50.675 50.2532 48.8996 49.6566C45.6905 48.606 42.3348 48.0718 38.958 48.0742C37.8142 48.1344 36.6618 48.1774 35.518 48.272C33.4688 48.4538 31.4345 48.7756 29.4292 49.2352C29.2709 49.2683 29.1156 49.3144 28.9648 49.3728C28.6204 49.5106 28.3357 49.7657 28.1611 50.093C27.9864 50.4203 27.933 50.7988 28.0102 51.1616C28.0682 51.5284 28.2569 51.8618 28.5413 52.1004C28.8258 52.3391 29.1869 52.4668 29.5582 52.4602C29.8134 52.4521 30.067 52.4175 30.315 52.357C32.7631 51.8059 35.2555 51.4749 37.7626 51.368C39.7033 51.2883 41.6472 51.3948 43.5676 51.6862C46.679 52.1417 49.6725 53.196 52.3826 54.7908C52.5212 54.8767 52.6648 54.9542 52.8126 55.023C53.1669 55.1788 53.5658 55.2001 53.9346 55.0829C54.3034 54.9658 54.6169 54.7182 54.8164 54.3866M57.9726 47.3002C58.2434 46.8464 58.3248 46.3044 58.1993 45.7911C58.0738 45.2778 57.7514 44.8344 57.3018 44.5568L57.0008 44.3762C54.9994 43.1931 52.8702 42.241 50.654 41.5382C46.2955 40.1407 41.7253 39.5207 37.152 39.7064C35.014 39.7777 32.8868 40.0425 30.7966 40.4976C29.9366 40.6868 29.0766 40.9104 28.2682 41.1598C27.8762 41.2835 27.5335 41.5282 27.2893 41.8589C27.0452 42.1896 26.9122 42.5892 26.9094 43.0002C26.9002 43.4038 27.0136 43.8008 27.2347 44.1386C27.4558 44.4764 27.7742 44.7392 28.1478 44.8922C28.612 45.0589 29.1198 45.0589 29.584 44.8922C32.4849 44.0522 35.4907 43.6294 38.5108 43.6366C40.7931 43.6384 43.0704 43.8514 45.3134 44.273C48.176 44.7871 50.9504 45.708 53.5522 47.0078C54.1198 47.3002 54.6702 47.627 55.2292 47.9366C55.6783 48.2127 56.218 48.3007 56.7316 48.1816C57.2451 48.0625 57.691 47.7458 57.9726 47.3002ZM58.2736 39.9988C58.6384 40.2207 59.0559 40.3413 59.4829 40.348C59.9099 40.3547 60.3309 40.2474 60.7026 40.037C61.0742 39.8266 61.383 39.5209 61.597 39.1514C61.811 38.7818 61.9225 38.3618 61.92 37.9348C61.92 37.7628 61.92 37.5908 61.8512 37.4188C61.7769 37.0825 61.6309 36.7663 61.4231 36.4917C61.2153 36.2171 60.9506 35.9906 60.6472 35.8278C58.8961 34.8151 57.0497 33.9768 55.1346 33.3252C50.4566 31.7616 45.5667 30.9234 40.635 30.8398C38.6265 30.7796 36.6163 30.8399 34.615 31.0204C32.7285 31.179 30.8551 31.4663 29.0078 31.8804C28.2596 32.0524 27.52 32.2416 26.789 32.4824C26.3114 32.6447 25.8988 32.9565 25.6122 33.3716C25.3257 33.7867 25.1804 34.2831 25.198 34.7872C25.21 35.2953 25.3831 35.7864 25.6922 36.1898C26.0013 36.5932 26.4305 36.888 26.918 37.0318C27.3676 37.1608 27.8444 37.1608 28.294 37.0318C29.0422 36.834 29.799 36.6276 30.5558 36.4642C32.6126 36.0362 34.7006 35.7745 36.7994 35.6816C38.6326 35.5793 40.4702 35.5793 42.3034 35.6816C44.0653 35.7874 45.8197 35.9941 47.558 36.3008C50.0551 36.7205 52.5019 37.3978 54.8594 38.3218C56.0434 38.8173 57.1926 39.3919 58.2994 40.0418" fill="white"/>
</g>
<defs>
<clipPath id="clip0_33_516">
<rect width="344" height="86" fill="white"/>
</clipPath>
</defs>
</svg>
